<?xml version="1.0" encoding="UTF-8"?>
<svg id="Layer_1" data-name="Layer 1" xmlns="http://www.w3.org/2000/svg" xmlns:xlink="http://www.w3.org/1999/xlink" viewBox="0 0 964.76 154.96">
  <defs>
    <style>
      .cls-1 {
        fill: url(#linear-gradient);
        stroke-width: 0px;
      }

      .cls-2 {
        letter-spacing: -.04em;
      }

      .cls-3 {
        fill: #3490e0;
        font-family: Metropolis-Regular, Metropolis;
        font-size: 138.54px;
      }
    </style>
    <linearGradient id="linear-gradient" x1="88.75" y1="135.03" x2="149.02" y2="13.55" gradientUnits="userSpaceOnUse">
      <stop offset="0" stop-color="#8d0fc3"/>
      <stop offset=".38" stop-color="#6d3ccd"/>
      <stop offset="1" stop-color="#3490e0"/>
    </linearGradient>
  </defs>
  <path class="cls-1" d="m171.87,33.28c-.28,0-.56,0-.83.01-.28,0-.56.01-.84.02-2.27-3.51-4.92-6.78-7.91-9.75-11.62-11.62-28.26-18.89-46.73-18.89-20.2,0-38.21,8.7-49.86,22.26-1.86,2.16-3.55,4.44-5.06,6.83h-.01c-2.28-.31-4.6-.47-6.97-.48h-.16C23.95,33.28,0,57.24,0,86.78c0,16.19,7.19,30.7,18.55,40.5,9.37,8.1,21.59,13,34.95,13h118.37c13.36,0,25.57-4.9,34.95-13,11.36-9.8,18.55-24.31,18.55-40.5,0-29.54-23.96-53.5-53.5-53.5Zm0,94H53.5c-22.37,0-40.5-18.13-40.5-40.5s18.13-40.5,40.5-40.5c.39,0,.78.01,1.17.01,5.35.16,10.44,1.35,15.07,3.38.19.08.37.16.56.25l27.25,27.25,6.64-7.56,1.96-2.23-29.78-29.78c8.73-11.28,23.03-18.64,39.19-18.64,14.78,0,28.01,6.15,36.85,15.84l-2.99,3.41-28.61,32.57-13.81,15.72h0s-14.27,16.25-14.27,16.25l-5.01,5.7-4.87,5.54-.25.29h17.3l6.22-7.08,12.6-14.34,13.8-15.71s.01-.01.01-.01l24.71-28.13c1.13-.44,2.28-.83,3.45-1.16,3.55-1.03,7.3-1.57,11.18-1.57,1.58,0,3.13.09,4.66.27,20.18,2.31,35.84,19.44,35.84,40.23,0,22.37-18.13,40.5-40.5,40.5Z"/>
  <text class="cls-3" transform="translate(234.37 116.86)"><tspan class="cls-2" x="0" y="0">T</tspan><tspan x="81.32" y="0">OP_JOBS</tspan></text>
</svg>